<svg id="Слой_2" data-name="Слой 2" xmlns="http://www.w3.org/2000/svg" viewBox="0 0 395.1 382.75"><defs><style>.cls-1{fill:#e9ef11;}.cls-1,.cls-3,.cls-4{stroke:#161515;stroke-miterlimit:10;stroke-width:10px;}.cls-2{fill:#cccc1d;}.cls-3{fill:none;stroke-linecap:round;}.cls-4{fill:#161515;}.cls-5{fill:red;}</style></defs><circle class="cls-1" cx="197.74" cy="192.16" r="85.83"/><path class="cls-2" d="M1237.39-175.88c0-43.18-30.16-74.29-71.69-80.3,1.36,1,93.1,61.76-.42,159.83C1206.16-102.92,1237.39-133.14,1237.39-175.88Z" transform="translate(-957.82 368.44)"/><path class="cls-3" d="M1116.25-158.53c17.5,31.92,59.72,36,77.22,0" transform="translate(-957.82 368.44)"/><line class="cls-3" x1="103.85" y1="28.68" x2="138.86" y2="89.43"/><line class="cls-3" x1="198.33" y1="5" x2="197.04" y2="73.99"/><line class="cls-3" x1="294.34" y1="28.68" x2="255.21" y2="89.43"/><line class="cls-3" x1="362.3" y1="89.43" x2="299.49" y2="131.65"/><line class="cls-3" x1="390.1" y1="192.16" x2="313.91" y2="186.22"/><line class="cls-3" x1="362.3" y1="277.99" x2="299.49" y2="249.03"/><line class="cls-3" x1="294.34" y1="349.94" x2="262.42" y2="297.43"/><line class="cls-3" x1="198.33" y1="377.75" x2="198.33" y2="308.76"/><line class="cls-3" x1="103.85" y1="356.12" x2="138.86" y2="297.43"/><line class="cls-3" x1="34.86" y1="288.16" x2="97.67" y2="249.03"/><line class="cls-3" x1="5" y1="192.46" x2="82.23" y2="197.55"/><line class="cls-3" x1="34.86" y1="99.73" x2="97.67" y2="131.65"/><circle class="cls-4" cx="180.56" cy="170.26" r="7.91"/><circle class="cls-4" cx="217.11" cy="170.26" r="7.91"/><circle class="cls-5" cx="180.56" cy="170.26" r="5.37"/><circle class="cls-5" cx="217.11" cy="170.26" r="5.37"/></svg>